<svg width="24" height="24" viewBox="0 0 24 24" fill="none" xmlns="http://www.w3.org/2000/svg">
<path fill-rule="evenodd" clip-rule="evenodd" d="M7.35 23.055C8.81 23.685 10.36 24 12 24C13.66 24 15.22 23.685 16.68 23.055C18.14 22.425 19.41 21.565 20.49 20.475C21.57 19.385 22.425 18.11 23.055 16.65C23.685 15.19 24 13.64 24 12C24 10.34 23.685 8.78 23.055 7.32C22.425 5.86 21.57 4.59 20.49 3.51C19.41 2.43 18.14 1.575 16.68 0.945C15.22 0.315 13.67 0 12.03 0C10.37 0 8.81 0.315 7.35 0.945C5.89 1.575 4.615 2.43 3.525 3.51C2.435 4.59 1.575 5.86 0.945 7.32C0.315 8.78 0 10.33 0 11.97C0 13.63 0.315 15.19 0.945 16.65C1.575 18.11 2.435 19.385 3.525 20.475C4.615 21.565 5.89 22.425 7.35 23.055ZM16.2426 6.34315L17.6569 7.75736L13.4142 12L17.6569 16.2426L16.2426 17.6569L12 13.4142L7.75736 17.6569L6.34315 16.2426L10.5858 12L6.34315 7.75736L7.75736 6.34315L12 10.5858L16.2426 6.34315Z" fill="white"/>
</svg>
