<svg width="120" height="40" viewBox="0 0 120 40" fill="none" xmlns="http://www.w3.org/2000/svg">
<path fill-rule="evenodd" clip-rule="evenodd" d="M45.6255 29C42.0031 29 38.6409 27.9506 36.3963 26.0059C34.7001 24.5363 33.8853 22.5394 33.8853 20.485C33.8853 18.4548 34.7353 16.4448 36.3963 14.9831C38.4797 13.1489 42.1607 12 45.6255 12C49.4599 12 52.5291 12.9326 54.8753 14.9879C56.5447 16.451 57.3521 18.4521 57.3521 20.485C57.3521 22.4558 56.4951 24.5544 54.8753 26.0059C52.6909 27.9633 49.2579 29 45.6255 29V26.7575C47.5487 26.7575 49.3319 26.1164 50.5771 24.9204C51.8145 23.7317 52.3909 22.2702 52.3909 20.485C52.3909 18.7738 51.7689 17.175 50.5771 16.0408C49.3481 14.8715 47.5225 14.2139 45.6255 14.2139C43.7233 14.2139 41.8955 14.8651 40.6661 16.0408C39.4809 17.1742 38.8577 18.7786 38.8577 20.485C38.8577 22.1856 39.4873 23.7879 40.6661 24.9204C41.8963 26.1025 43.7175 26.7575 45.6255 26.7575V29Z" fill="white"/>
<path fill-rule="evenodd" clip-rule="evenodd" d="M19.149 12.0081C17.2114 12.0081 15.0094 12.3582 13.1396 13.1646C11.4134 13.9087 10 15.1113 10 17.1054C9.999 18.9012 11.1812 19.9527 11.149 19.9242C11.652 20.371 12.4614 21.1321 14.5774 21.5796C15.5234 21.7791 17.5454 22.0853 19.5594 22.2893C21.5576 22.4926 23.5252 22.6858 24.3258 22.882C24.9624 23.0384 26.0326 23.2516 26.0326 24.4095C26.0326 25.5634 24.906 25.9157 24.71 25.9914C24.5142 26.0669 23.1626 26.6651 20.7336 26.6651C18.94 26.6651 16.784 26.1441 15.9978 25.873C15.0922 25.5615 14.1416 25.1496 13.2552 24.1044C13.0346 23.8445 12.687 23.1321 12.687 22.426H10.488V28.3748H12.9322C12.9322 28.3748 12.9322 27.7223 12.9322 27.5707C12.9322 27.4793 13.0502 27.1026 13.4606 27.2822C13.9712 27.5062 15.4694 28.0822 17.036 28.3982C18.3206 28.657 19.149 28.8429 20.7458 28.8429C23.3512 28.8429 24.7512 28.4337 25.7188 28.1666C26.6306 27.915 27.7566 27.4621 28.6722 26.7575C29.1672 26.3766 30.254 25.3996 30.254 23.6268C30.254 21.9258 29.3086 20.8697 28.9758 20.5483C28.5228 20.1107 27.9688 19.7706 27.3918 19.5092C26.8896 19.2811 26.0962 19.0069 25.4474 18.8533C24.1876 18.5546 21.3396 18.1865 19.977 18.049C18.5492 17.9047 16.0712 17.7064 15.0818 17.4105C14.7816 17.3207 14.1708 17.0394 14.1708 16.3544C14.1708 15.8666 14.45 15.4531 15.0028 15.1188C15.8802 14.5883 17.6524 14.2577 19.5004 14.2577C21.6844 14.2504 23.5344 14.7328 24.7112 15.2403C25.1118 15.4127 25.5794 15.6611 25.9516 15.9542C26.3708 16.2847 26.961 16.9708 27.1734 17.9285H29.1474V12.7504H26.9434V13.3518C26.9434 13.5466 26.7358 13.799 26.3432 13.5899C25.3566 13.0909 22.5674 12.0127 19.149 12.0081Z" fill="white"/>
<path fill-rule="evenodd" clip-rule="evenodd" d="M67.4489 12.9492L78.2003 22.3178L78.0903 16.0101C78.0789 15.1828 77.9211 14.8375 76.9949 14.8375C75.7567 14.8375 74.9731 14.8375 74.9731 14.8375V12.9508H84.1665V14.8375C84.1665 14.8375 83.4325 14.8375 82.1937 14.8375C81.2493 14.8375 81.1899 15.1297 81.1777 16.0101L81.3445 28.0634H78.1961L65.8137 17.3915L65.8157 24.9648C65.8269 25.7887 65.8665 26.1759 66.7449 26.1759C67.9821 26.1759 68.9531 26.1759 68.9531 26.1759V28.0626H59.9247V26.1759C59.9247 26.1759 60.7977 26.1759 62.0351 26.1759C62.8235 26.1759 62.7921 25.4503 62.7921 24.9222V16.0816C62.7921 15.5111 62.7089 14.8387 61.4715 14.8387H59.7593V12.9492H67.4489Z" fill="white"/>
<path fill-rule="evenodd" clip-rule="evenodd" d="M94.6705 26.1726C94.7565 26.1726 95.1401 26.1616 95.2143 26.1397C95.4267 26.076 95.5709 25.9296 95.6377 25.7772C95.6659 25.7135 95.6799 25.4298 95.6799 25.3692C95.6799 25.3692 95.6811 22.4863 95.6811 22.3867C95.6811 22.315 95.6755 22.2837 95.5499 22.1246C95.4111 21.9496 89.9185 15.9392 89.6669 15.6748C89.3549 15.3458 88.8069 14.8379 87.9733 14.8379C87.3107 14.8379 86.0635 14.8379 86.0635 14.8379V12.95H96.8435V14.8352C96.8435 14.8352 95.7947 14.8352 95.5439 14.8352C95.2439 14.8352 95.0443 15.1106 95.3005 15.4165C95.3005 15.4165 98.9279 19.606 98.9623 19.6504C98.9963 19.6944 99.0251 19.7054 99.0709 19.6641C99.1163 19.6226 102.789 15.4553 102.818 15.4221C102.992 15.2202 102.875 14.8379 102.498 14.8379C102.246 14.8379 101.164 14.8379 101.164 14.8379V12.95H110V14.8379C110 14.8379 108.688 14.8379 108.026 14.8379C107.309 14.8379 107.018 14.9653 106.479 15.5538C106.233 15.8228 100.682 21.9413 100.531 22.1072C100.451 22.1939 100.459 22.315 100.459 22.3867C100.459 22.5018 100.459 25.0919 100.459 25.368C100.459 25.4283 100.473 25.712 100.501 25.7757C100.567 25.9288 100.712 26.0748 100.924 26.1382C100.999 26.1604 101.377 26.1714 101.463 26.1714C101.851 26.1714 103.482 26.1714 103.482 26.1714V28.0587H92.7573V26.1714L94.6705 26.1726Z" fill="white"/>
</svg>
